<svg xmlns="http://www.w3.org/2000/svg" width="87.632" height="34.019" viewBox="0 0 87.632 34.019">
  <g id="Gruppe_21531" data-name="Gruppe 21531" transform="translate(-175 -67)">
    <path id="Pfad_56610" data-name="Pfad 56610" d="M123.542,129.161H108.3c-2.1,0-3.042-.6-3.042-2.746v-18.8c0-2.155.929-2.757,3.042-2.757h20.511V100H108.3c-4.742,0-8.3,2.028-8.3,7.816v18.4c0,5.788,3.559,7.805,8.3,7.805h20.511V124.3h-5.27Z" transform="translate(75 -33)" fill="#16477c"/>
    <path id="Pfad_56611" data-name="Pfad 56611" d="M276.278,116.9a5.161,5.161,0,0,0,2.757-5.059v-4.024c0-5.788-3.559-7.816-8.3-7.816H252.567v4.858h18.166c2.112,0,3.042.613,3.042,2.757v4.225c0,2.144-.929,2.757-2.831,2.757H232.5v4.848h38.6c1.331.085,2.873.729,2.873,2.757v4.2c0,2.155-1.331,2.757-3.031,2.757H252.578v4.858h18.356c4.087,0,8.3-2.028,8.3-7.816v-4A5.815,5.815,0,0,0,276.278,116.9Z" transform="translate(-43.506 -33)" fill="#16477c"/>
    <path id="Pfad_56612" data-name="Pfad 56612" d="M746.4,146.887h2v8.851h1.056v-8.851h2V146H746.4Z" transform="translate(-503.129 -74.143)"/>
    <path id="Pfad_56613" data-name="Pfad 56613" d="M882.5,151.343c-.021,1.806-.591,2.482-1.574,2.482-1.225,0-1.764-1.077-1.764-4.109s.538-4.109,1.764-4.109c.824,0,1.31.644,1.447,2.186h1.046c-.169-2.091-1.046-3.095-2.493-3.095-1.742,0-2.83,1.32-2.83,5.006s1.077,5.006,2.82,5.006c1.658,0,2.6-1.215,2.63-3.369Z" transform="translate(-620.918 -72.979)"/>
    <path id="Pfad_56614" data-name="Pfad 56614" d="M814.946,151.1h2.5v-.887h-2.5v-3.327h3.4V146H813.9v9.738h4.605v-.887h-3.559Z" transform="translate(-563.5 -74.143)"/>
  </g>
</svg>
